<mxfile host="65bd71144e">
    <diagram id="d65hgenSEC4VBzxvmXhs" name="第1頁">
        <mxGraphModel dx="453" dy="214" grid="1" gridSize="10" guides="1" tooltips="1" connect="1" arrows="1" fold="1" page="1" pageScale="1" pageWidth="1169" pageHeight="827" math="0" shadow="0">
            <root>
                <mxCell id="0"/>
                <mxCell id="1" parent="0"/>
                <mxCell id="3" value="" style="rounded=0;whiteSpace=wrap;html=1;fillColor=#99FFFF;strokeColor=#CC0000;" vertex="1" parent="1">
                    <mxGeometry x="90" y="150" width="120" height="400" as="geometry"/>
                </mxCell>
                <mxCell id="14" style="edgeStyle=none;html=1;labelBackgroundColor=none;fontColor=#FFFFFF;strokeColor=#000000;fillColor=#CC0000;" edge="1" parent="1" source="2" target="13">
                    <mxGeometry relative="1" as="geometry"/>
                </mxCell>
                <mxCell id="2" value="" style="rounded=0;whiteSpace=wrap;html=1;fillColor=#99FFFF;strokeColor=#CC0000;" vertex="1" parent="1">
                    <mxGeometry x="90" y="560" width="120" height="70" as="geometry"/>
                </mxCell>
                <mxCell id="11" value="" style="rounded=0;whiteSpace=wrap;html=1;labelBackgroundColor=none;fontColor=#CC0000;strokeColor=none;fillColor=#000099;labelBorderColor=none;shadow=0;" vertex="1" parent="1">
                    <mxGeometry x="160" y="570" width="30" height="20" as="geometry"/>
                </mxCell>
                <mxCell id="10" value="" style="rounded=0;whiteSpace=wrap;html=1;labelBackgroundColor=none;fontColor=#CC0000;strokeColor=none;fillColor=#006600;labelBorderColor=none;shadow=0;" vertex="1" parent="1">
                    <mxGeometry x="150" y="580" width="30" height="20" as="geometry"/>
                </mxCell>
                <mxCell id="4" value="" style="shape=flexArrow;endArrow=classic;html=1;endWidth=15.12;endSize=7.2;width=14.8;fillColor=#CC0000;strokeColor=#000000;labelBackgroundColor=none;" edge="1" parent="1">
                    <mxGeometry width="50" height="50" relative="1" as="geometry">
                        <mxPoint x="110" y="610" as="sourcePoint"/>
                        <mxPoint x="110" y="560" as="targetPoint"/>
                    </mxGeometry>
                </mxCell>
                <mxCell id="7" value="start" style="edgeLabel;html=1;align=center;verticalAlign=middle;resizable=0;points=[];rotation=270;fillColor=#CC0000;strokeColor=#000000;labelBackgroundColor=none;" vertex="1" connectable="0" parent="4">
                    <mxGeometry x="-0.1536" y="2" relative="1" as="geometry">
                        <mxPoint as="offset"/>
                    </mxGeometry>
                </mxCell>
                <mxCell id="8" value="1. input" style="text;html=1;strokeColor=none;fillColor=none;align=center;verticalAlign=middle;whiteSpace=wrap;rounded=0;labelBackgroundColor=none;fontColor=#CC0000;" vertex="1" parent="1">
                    <mxGeometry x="90" y="610" width="50" height="20" as="geometry"/>
                </mxCell>
                <mxCell id="9" value="" style="rounded=0;whiteSpace=wrap;html=1;labelBackgroundColor=none;fontColor=#CC0000;strokeColor=none;fillColor=#CC0000;labelBorderColor=none;shadow=0;" vertex="1" parent="1">
                    <mxGeometry x="140" y="585" width="30" height="20" as="geometry"/>
                </mxCell>
                <mxCell id="12" value="&lt;font color=&quot;#000000&quot;&gt;640*640*3&lt;/font&gt;" style="text;html=1;strokeColor=none;fillColor=none;align=center;verticalAlign=middle;whiteSpace=wrap;rounded=0;shadow=0;labelBackgroundColor=none;labelBorderColor=none;fontColor=#CC0000;" vertex="1" parent="1">
                    <mxGeometry x="140" y="600" width="60" height="30" as="geometry"/>
                </mxCell>
                <mxCell id="13" value="&lt;font color=&quot;#ffffff&quot;&gt;Focus&lt;/font&gt;" style="rounded=0;whiteSpace=wrap;html=1;shadow=0;labelBackgroundColor=none;labelBorderColor=none;fontColor=#000000;strokeColor=#000000;fillColor=#000099;" vertex="1" parent="1">
                    <mxGeometry x="110" y="510" width="80" height="20" as="geometry"/>
                </mxCell>
            </root>
        </mxGraphModel>
    </diagram>
</mxfile>